<svg width="1826" height="465" fill="none" xmlns="http://www.w3.org/2000/svg">
  <path
    d="M462.8 182.3C445 102 381.8 38.4 301.7 20c-17.1-3.9-34.4-5.9-51.5-5.9-49.5 0-98 17.1-136.5 48-37.9 30.5-64.9 73.3-75.8 120.4-1.2 5.1 0 10.4 3.3 14.5 3.3 4.2 8.3 6.6 13.6 6.6H100c7.7 0 14.3-5 16.6-12.4 18-59.2 71.8-99 133.7-99 61.6 0 116.7 41.2 134.1 100.2.2.6.1 1.3-.3 1.8s-.9.8-1.6.8h-70.2c-2.7 0-5.4-1.4-7.1-3.7-12.9-17.3-32.6-27.4-54.2-27.6h-.6c-18.5 0-35.9 7.4-49 20.9-13.1 13.5-19.9 31.2-19.3 49.7 1.3 37 31.2 65.9 68.2 65.9 21.5 0 42-10.3 54.9-27.7 1.7-2.3 4.3-3.6 7.1-3.6l70.2 1c.7 0 1.2-.7 1.6-.1.4.5.5 1.2.3 1.8C367 330.8 311.8 372 250.3 372c-61.9 0-115.6-39.7-133.7-98.9-2.3-7.5-9-12.5-16.7-12.5H55c-5.4 0-10.4 2.4-13.7 6.6-3.3 4.2-4.5 9.5-3.3 14.7 11 47.1 38 89.8 75.9 120.3 38.5 30.9 87 48 136.4 48 66.5 0 128.5-29.8 170.2-81.7 41.6-51.9 57-119.8 42.3-186.2zM250.3 434.4c-23.4 0-46.4-4-68.2-11.8-21.1-7.6-40.7-18.6-58.3-32.7-35.2-28.3-60.2-67.9-70.4-111.5-.1-.3-.1-.8.3-1.3.3-.4.8-.6 1.3-.6h44.9c.7 0 1.4.5 1.6 1.2 20.1 65.8 79.9 110.1 148.9 110.1 68.5 0 129.9-45.9 149.3-111.5 1.6-5.5.6-11.2-2.8-15.8-3.4-4.6-8.6-7.2-14.3-7.2h-70.2c-7.7 0-15.1 3.8-19.8 10-10 13.5-25.4 21.3-42.2 21.3-13.7 0-26.6-5.2-36.5-14.8-9.8-9.5-15.5-22.2-15.9-35.9-.5-14.2 4.8-27.8 14.8-38.2 10-10.4 23.4-16.1 37.6-16.1h.5c16.6.2 31.7 7.9 41.6 21.2 4.7 6.3 12.1 10.1 19.8 10.1h70.2c5.7 0 10.9-2.6 14.3-7.2 3.4-4.6 4.4-10.3 2.8-15.7-19.3-65.7-80.7-111.6-149.3-111.6-69 0-128.8 44.3-148.9 110.2-.2.7-.8 1.1-1.4 1.1H54.8c-.5 0-.9-.2-1.2-.6-.4-.5-.3-.8-.3-1.1 10.2-43.7 35.1-83.4 70.3-111.7 17.6-14.1 37.2-25.1 58.3-32.7C203.8 34 226.8 30 250.3 30c15.9 0 32 1.8 47.9 5.5 36.5 8.3 69.7 26.9 96.2 53.6 26.5 26.7 44.8 60.1 52.9 96.7 7.1 31.8 6.9 63.5-.4 94-6.9 28.6-20.3 55.9-38.8 78.9-38.6 48.1-96.2 75.7-157.8 75.7zM803.3 113.2h-38v195.2h38V113.2zM849.4 150.3c12.205 0 22.1-9.895 22.1-22.1 0-12.206-9.895-22.1-22.1-22.1-12.206 0-22.1 9.894-22.1 22.1 0 12.205 9.894 22.1 22.1 22.1zM868.6 167.3h-38v141h38v-141zM965.9 282c-21.6 0-36.6-14.7-36.6-44.3 0-29.5 15-44.3 36.6-44.3 13.9 0 28.2 7.1 32 25.7h36.4c-3.3-37.7-34.7-55.8-68.1-55.7-43.7 0-75.7 24.1-75.7 74.4 0 50.3 32 74.3 75.7 74.3 33.3 0 64.8-18.3 68-55.8h-36.4c-3.7 18.3-17.9 25.7-31.9 25.7zM649.3 273.1c-28 0-47.5-19.1-47.5-57.4s19.5-57.5 47.5-57.5c18.1 0 36.5 9.2 41.5 33.3H738c-4.3-48.9-45.1-72.3-88.3-72.3-56.7 0-98.2 31.2-98.2 96.5 0 65.2 41.5 96.4 98.3 96.4 43.3 0 84-23.8 88.3-72.4h-47.2c-5.1 23.8-23.5 33.4-41.6 33.4zM1191.4 167.1l-45.4.1-49.7 55.2h-2.7l-.1-109.3h-38l.1 195.1h38v-63.4h2.7l48.9 63.4h47.1l-60.7-77.4 59.8-63.7zM1231.3 207c0-11.2 9.6-15.6 25.1-15.6 19.1 0 26.5 7.9 26.5 16.1 0 1.1-.3 1.6-.3 1.9h37.4c.3-1.4.3-2.5.3-3.8 0-24.6-20-42.4-64-42.3-37.4 0-62.6 17.8-62.6 45.4 0 58.5 91.6 33.3 91.6 59.3 0 11.2-12 15.9-27.3 15.9-16.4 0-27.3-7.1-27.3-16.7v-1.4h-37.4c-.3 1.4-.5 3.3-.5 4.9 0 20.2 15.6 41.3 65.3 41.3 41 0 64.8-18.3 64.8-45.9 0-58.6-91.6-32.6-91.6-59.1zM1363.6 105.8c-12.9 0-22.1 9.3-22.1 22.1s9.3 22.1 22.2 22.1c12.8 0 22.1-9.3 22.1-22.1-.1-12.8-9.4-22.1-22.2-22.1zM1382.8 167.1h-38v141h38v-141zM1521 167l-2.7 18.6h-2.7c-10.7-14.8-24.6-22.4-46.5-22.4-34.2 0-64.5 22.7-64.5 68.9 0 45.9 30.4 68.9 64.5 68.9 21.9 0 36.1-7.9 46.5-22.7h2.7v16.1c0 24-13.1 39.4-38.3 39.4-19.1 0-29.5-6.3-29.5-19.9h-38v1.4c.6 30.1 21.3 48.6 68.1 48.6 36.4 0 75.4-16.4 75.4-74.1V167.1l-35-.1zm-40.7 102.8c-22.1 0-37.7-12.6-37.7-37.7 0-25.4 15.6-37.7 37.7-37.7s38.8 15 38.8 37.7c.1 22.7-16.6 37.7-38.8 37.7zM1655 163.1c-44.3 0-71.6 20-71.6 66.4V308h38v-78.5c0-22.4 11.5-34.2 33.6-34.2s33.9 11.5 33.9 33.6v79h37.7v-79c0-46.4-27.1-65.8-71.6-65.8zM1765.5 125.4c-12.4 0-22.6 10-22.6 22.6 0 12.4 10.1 22.6 22.6 22.6 12.6 0 22.6-10.1 22.6-22.6 0-12.6-10-22.6-22.6-22.6zm0 42.1c-10.9 0-19.6-8.8-19.6-19.6 0-10.9 8.7-19.5 19.6-19.5 10.7 0 19.5 8.6 19.5 19.5 0 10.8-8.8 19.6-19.5 19.6z"
    fill="#fff" />
  <path
    d="M1775.6 143c0-4.8-3.7-7.9-8.2-7.9h-10.5V161h3.4v-10.2h4.7l6.7 10.2h4.3l-6.9-10.3c1.4-.1 6.5-2 6.5-7.7zm-15.3 4.6V138h7.1c2.7 0 4.7 2 4.7 4.9 0 2.7-2 4.7-4.7 4.7h-7.1z"
    fill="#fff" />
</svg>
